<?xml version="1.0" encoding="UTF-8"?>
<svg enable-background="new 0 0 156.1 242.1" version="1.1" viewBox="0 0 156.1 242.1" xml:space="preserve" xmlns="http://www.w3.org/2000/svg">
<style type="text/css">
	.st0{fill:#382E2C;}
</style>
<title>Certified B Corporation</title>
<path class="st0" d="m19.9 7.9c-0.4-0.6-0.8-1.1-1.3-1.5-1.2-0.9-2.6-1.4-4-1.4-1.2 0-2.4 0.2-3.4 0.8-0.9 0.5-1.7 1.2-2.3 2.1s-1 1.9-1.3 3-0.4 2.3-0.4 3.5c0 1.1 0.1 2.2 0.4 3.3 0.2 1 0.7 2 1.3 2.9 0.6 0.8 1.4 1.5 2.3 2 1.1 0.5 2.2 0.8 3.4 0.8 1.6 0.1 3.2-0.5 4.3-1.7s1.7-2.8 1.9-4.4h5.8c-0.1 1.6-0.5 3.1-1.2 4.6-0.6 1.3-1.4 2.5-2.5 3.5s-2.3 1.7-3.7 2.2c-1.5 0.5-3 0.8-4.6 0.8-1.9 0-3.8-0.3-5.6-1.1-1.6-0.7-3-1.7-4.2-3s-2.1-2.8-2.7-4.4c-0.6-1.8-0.9-3.6-0.9-5.5s0.3-3.8 0.9-5.7c0.6-1.7 1.5-3.3 2.7-4.6s2.6-2.3 4.2-3c3.1-1.3 6.6-1.5 9.8-0.5 1.3 0.4 2.5 1 3.6 1.9 1.1 0.8 1.9 1.9 2.6 3.1 0.7 1.3 1.2 2.7 1.3 4.2h-5.8c0-0.7-0.3-1.4-0.6-1.9z"/>
<path class="st0" d="m35.1 23.1c1.8 1.4 4.3 1.6 6.3 0.4 0.7-0.4 1.2-1 1.4-1.7h4.8c-0.5 2-1.8 3.8-3.5 5.1-1.7 1.1-3.7 1.6-5.7 1.5-1.4 0-2.9-0.2-4.2-0.8-1.2-0.5-2.3-1.2-3.2-2.1s-1.6-2.1-2-3.3c-0.5-1.3-0.7-2.8-0.7-4.2s0.2-2.8 0.7-4.1c0.4-1.2 1.1-2.3 2-3.3 0.9-0.9 2-1.7 3.2-2.1 1.3-0.5 2.7-0.8 4.1-0.8 1.5 0 3 0.3 4.4 1 1.2 0.6 2.3 1.5 3.1 2.6s1.4 2.4 1.7 3.7c0.4 1.4 0.5 2.9 0.4 4.4h-14.2c0 1.3 0.5 2.6 1.4 3.7zm6-10.4c-0.8-0.8-1.9-1.2-3-1.1-0.7 0-1.5 0.1-2.2 0.4-0.5 0.3-1 0.6-1.4 1.1-0.3 0.4-0.6 0.9-0.7 1.4-0.1 0.4-0.2 0.9-0.2 1.3h8.8c-0.1-1.1-0.5-2.2-1.3-3.1z"/>
<path class="st0" d="m55.5 8.1v3.6h0.1c0.2-0.6 0.6-1.2 1-1.7s0.9-1 1.5-1.3c0.6-0.4 1.2-0.6 1.8-0.9 0.6-0.2 1.3-0.3 2-0.3 0.4 0 0.8 0.1 1.2 0.2v5c-0.3 0-0.6-0.1-0.9-0.1s-0.7-0.1-1-0.1c-0.9 0-1.7 0.1-2.5 0.5-0.7 0.3-1.2 0.8-1.7 1.3-0.4 0.6-0.7 1.3-0.9 2-0.2 0.8-0.3 1.6-0.3 2.5v8.9h-5.4v-19.6h5.1z"/>
<path class="st0" d="m77.5 8.1v3.6h-4v9.7c-0.1 0.6 0.1 1.3 0.5 1.8 0.5 0.4 1.2 0.5 1.8 0.5h0.9c0.3 0 0.5-0.1 0.8-0.1v4.2c-0.5 0.1-1 0.1-1.5 0.2h-1.6c-0.8 0-1.6-0.1-2.4-0.2-0.7-0.1-1.4-0.3-2-0.7-0.6-0.3-1-0.8-1.3-1.4-0.4-0.7-0.5-1.6-0.5-2.4v-11.6h-3.2v-3.6h3.3v-5.9h5.4v5.9h3.8z"/>
<path class="st0" d="m80.2 5.1v-4.5h5.4v4.4l-5.4 0.1zm5.4 3v19.7h-5.4v-19.7h5.4z"/>
<path class="st0" d="m87.8 11.7v-3.6h3.2v-1.5c0-1.6 0.6-3.2 1.7-4.3 1.4-1.2 3.2-1.8 5-1.7 0.5 0 1 0 1.4 0.1l1.4 0.1v4c-0.7-0.1-1.3-0.1-2-0.1-0.5-0.1-1.1 0.1-1.5 0.5-0.4 0.5-0.5 1.1-0.5 1.7v1.2h3.7v3.6h-3.7v16.1h-5.4v-16h-3.3z"/>
<path class="st0" d="m103.5 5.1v-4.5h5.4v4.4l-5.4 0.1zm5.4 3v19.7h-5.4v-19.7h5.4z"/>
<path class="st0" d="m117.4 23.1c1.8 1.4 4.3 1.6 6.3 0.4 0.7-0.4 1.2-1 1.4-1.7h4.8c-0.5 2-1.8 3.8-3.5 5.1-1.7 1.1-3.7 1.6-5.7 1.5-1.4 0-2.8-0.2-4.2-0.8-1.2-0.5-2.3-1.2-3.2-2.1s-1.6-2.1-2-3.3c-0.5-1.3-0.7-2.8-0.7-4.2s0.2-2.8 0.7-4.1c0.5-1.2 1.2-2.3 2.1-3.3 0.9-0.9 2-1.7 3.2-2.1 1.3-0.5 2.7-0.8 4.1-0.8 1.5 0 3 0.3 4.4 1 1.2 0.6 2.3 1.5 3.1 2.6s1.4 2.4 1.7 3.7c0.4 1.4 0.5 2.9 0.4 4.4h-14.2c-0.1 1.2 0.4 2.6 1.3 3.7zm6.1-10.4c-0.8-0.8-1.9-1.2-2.9-1.1-0.7 0-1.5 0.1-2.1 0.4-0.5 0.3-1 0.6-1.4 1.1-0.3 0.4-0.6 0.9-0.7 1.4-0.1 0.4-0.2 0.9-0.3 1.3h8.8c-0.2-1.1-0.7-2.2-1.4-3.1z"/>
<path class="st0" d="m146.6 25.3c-0.6 1-1.4 1.8-2.5 2.3s-2.3 0.7-3.5 0.7c-1.3 0-2.7-0.3-3.9-0.9-1.1-0.5-2-1.3-2.8-2.3-0.7-1-1.3-2.2-1.6-3.4-0.4-1.3-0.6-2.6-0.6-4 0-1.3 0.2-2.6 0.6-3.8 0.3-1.2 0.9-2.3 1.6-3.3 1.6-2 4-3.2 6.5-3.1 1.2 0 2.3 0.3 3.3 0.7 1 0.5 1.9 1.2 2.5 2.2h0.1v-9.8h5.4v27.2h-5.1v-2.5zm-0.2-9.8c-0.1-0.7-0.4-1.4-0.8-2s-0.9-1-1.4-1.4c-0.7-0.4-1.4-0.6-2.2-0.5-0.8 0-1.6 0.2-2.3 0.5-0.6 0.3-1.1 0.8-1.5 1.4s-0.7 1.3-0.8 2c-0.2 0.8-0.3 1.6-0.3 2.3 0 0.8 0.1 1.5 0.3 2.3 0.2 0.7 0.5 1.4 0.9 2s0.9 1.1 1.5 1.4c0.7 0.4 1.4 0.6 2.1 0.5 0.8 0 1.5-0.2 2.2-0.5 0.6-0.3 1.1-0.8 1.4-1.4 0.4-0.6 0.6-1.3 0.8-2 0.2-0.8 0.2-1.6 0.2-2.4 0.1-0.6 0.1-1.4-0.1-2.2z"/>
<path class="st0" d="m44.2 72h31.5c7.7 0 17.8 0 23 3.2 6.4 3.8 10.3 10.7 10.2 18.1 0 9.2-4.9 16.2-12.9 19.4v0.2c10.7 2.2 16.5 10.2 16.5 20.9 0 12.8-9.1 24.9-26.4 24.9h-42v-86.7zm11.5 37.3h23.1c13.1 0 18.5-4.8 18.5-13.9 0-12-8.5-13.7-18.5-13.7h-23.1v27.6zm0 39.7h28.9c10 0 16.3-6.1 16.3-15.6 0-11.3-9.1-14.5-18.8-14.5h-26.4v30.1z"/>
<path class="st0" d="m142.1 115.4c0 36.5-29.5 66-66 66s-66-29.5-66-66 29.5-66 66-66 66 29.5 66 66zm-66-76.1c-42 0-76.1 34.1-76.1 76.1s34.1 76.1 76.1 76.1 76.1-34.1 76.1-76.1v-0.1c-0.1-42-34.2-76-76.1-76-0.1 0-0.1 0 0 0z"/>
<path class="st0" d="m14 207.8c-0.4-2-2.2-3.4-4.2-3.4-3.8 0-5.2 3.2-5.2 6.6 0 3.2 1.4 6.4 5.2 6.4 2.6 0 4-1.8 4.4-4.3h4.1c-0.4 4.8-3.7 7.9-8.5 7.9-6 0-9.5-4.4-9.5-10 0-5.7 3.5-10.1 9.5-10.1 4.2 0 7.8 2.5 8.3 6.9h-4.1z"/>
<path class="st0" d="m27.1 206.3c4.4 0 7.2 2.9 7.2 7.4s-2.8 7.3-7.2 7.3-7.2-2.9-7.2-7.3 2.8-7.4 7.2-7.4zm0 11.8c2.6 0 3.4-2.2 3.4-4.4s-0.8-4.5-3.4-4.5-3.4 2.2-3.4 4.5 0.8 4.4 3.4 4.4z"/>
<path class="st0" d="m36.5 206.7h3.6v2.6h0.1c0.8-1.8 2.5-3 4.4-3 0.3 0 0.6 0 0.8 0.1v3.6c-0.5-0.1-0.9-0.1-1.4-0.1-2.8 0-3.8 2-3.8 4.5v6.3h-3.8v-14z"/>
<path class="st0" d="m47.5 206.7h3.6v1.8c0.9-1.4 2.5-2.2 4.1-2.1 4.4 0 6.3 3.5 6.3 7.5 0 3.7-2 7.2-6.1 7.2-1.7 0-3.2-0.7-4.2-2.1v6.6h-3.8l0.1-18.9zm10.4 7c0-2.2-0.9-4.5-3.3-4.5s-3.3 2.2-3.3 4.5 0.9 4.4 3.3 4.4 3.3-2.2 3.3-4.4z"/>
<path class="st0" d="m70.7 206.3c4.4 0 7.2 2.9 7.2 7.4s-2.8 7.3-7.2 7.3-7.2-2.9-7.2-7.3 2.9-7.4 7.2-7.4zm0 11.8c2.6 0 3.4-2.2 3.4-4.4s-0.8-4.5-3.4-4.5-3.4 2.2-3.4 4.5 0.8 4.4 3.4 4.4z"/>
<path class="st0" d="m80.4 206.7h3.6v2.6h0.1c0.8-1.8 2.5-3 4.4-3 0.3 0 0.6 0 0.8 0.1v3.6c-0.5-0.1-0.9-0.1-1.4-0.1-2.8 0-3.8 2-3.8 4.5v6.3h-3.8l0.1-14z"/>
<path class="st0" d="m90.7 211c0.2-3.6 3.4-4.7 6.6-4.7 2.8 0 6.1 0.6 6.1 4v7.2c-0.1 1.1 0.1 2.1 0.5 3.1h-3.9c-0.1-0.4-0.2-0.9-0.3-1.4-1.3 1.2-3 1.8-4.7 1.7-2.6 0-4.7-1.3-4.7-4.2 0-3.1 2.4-3.9 4.7-4.2s4.5-0.3 4.5-1.8-1.1-1.9-2.5-1.9-2.4 0.6-2.5 2.1l-3.8 0.1zm8.9 2.8c-0.7 0.6-2 0.6-3.2 0.8s-2.3 0.6-2.3 2.1 1.1 1.8 2.3 1.8c1.6 0.2 3-1 3.1-2.5v-0.7l0.1-1.5z"/>
<path class="st0" d="m111.2 206.7h2.8v2.6h-2.8v6.9c0 1.3 0.3 1.6 1.6 1.6 0.4 0 0.8 0 1.2-0.1v3c-0.7 0.1-1.5 0.2-2.2 0.1-2.3 0-4.4-0.5-4.4-3.3v-8.2h-2.3v-2.6h2.3v-4.2h3.8v4.2z"/>
<path class="st0" d="m119.8 204.5h-3.8v-3.1h3.8v3.1zm-3.9 2.2h3.8v13.9h-3.8v-13.9z"/>
<path class="st0" d="m129 206.3c4.4 0 7.2 2.9 7.2 7.4s-2.8 7.3-7.2 7.3-7.2-2.9-7.2-7.3 2.8-7.4 7.2-7.4zm0 11.8c2.6 0 3.4-2.2 3.4-4.4s-0.8-4.5-3.4-4.5-3.4 2.2-3.4 4.5 0.8 4.4 3.4 4.4z"/>
<path class="st0" d="m138.7 206.7h3.6v1.9h0.1c0.9-1.5 2.5-2.3 4.3-2.3 4.1 0 5.1 2.3 5.1 5.7v8.6h-3.8v-7.9c0-2.3-0.7-3.4-2.4-3.4-2.1 0-3 1.2-3 4v7.3h-3.8l-0.1-13.9z"/>
<rect class="st0" x=".3" y="232.4" width="151.6" height="9.7"/>
<path class="st0" d="m155.5 203.9c-0.8 0.8-2 0.8-2.8 0s-0.8-2 0-2.8 2-0.8 2.8 0c0.4 0.4 0.6 0.9 0.6 1.4s-0.2 1-0.6 1.4zm-2.6-2.7c-0.3 0.3-0.5 0.8-0.5 1.2 0 0.9 0.7 1.7 1.7 1.7 0.5 0 0.9-0.2 1.2-0.5 0.7-0.7 0.7-1.8 0-2.4-0.3-0.3-0.8-0.5-1.2-0.5-0.5 0-0.9 0.2-1.2 0.5zm1.1 0.1c0.2 0 0.4 0 0.6 0.1s0.4 0.3 0.3 0.6c0 0.2-0.1 0.3-0.2 0.4s-0.2 0.1-0.3 0.1c0.1 0 0.3 0.1 0.4 0.2s0.1 0.2 0.1 0.3v0.2 0.2 0.1h-0.4v-0.3c0-0.2-0.1-0.4-0.2-0.5s-0.3-0.1-0.4-0.1h-0.3v0.9h-0.4v-2.1l0.8-0.1zm0.5 0.4c-0.1-0.1-0.3-0.1-0.5-0.1h-0.3v0.8h0.4 0.4c0.1-0.1 0.2-0.2 0.2-0.4-0.1-0.1-0.1-0.2-0.2-0.3z"/>
</svg>