<?xml version="1.0" encoding="UTF-8"?>
<svg enable-background="new 0 0 585.7 86.1" version="1.1" viewBox="0 0 585.7 86.1" xml:space="preserve" xmlns="http://www.w3.org/2000/svg">
<style type="text/css">
	.st0{fill:#00A3E0;}
</style>
<rect class="st0" x="200.2" y=".2" width="14.1" height="85.9"/>
	<rect class="st0" x="547.3" y="28.4" width="14.1" height="57.7"/>
	<rect class="st0" x="523" y=".2" width="62.7" height="14.1"/>
	<rect class="st0" width="63.8" height="14.1"/>
	<rect class="st0" y="36.1" width="46.9" height="14.1"/>
	<rect class="st0" y="72.3" width="63.8" height="14.1"/>
	<rect class="st0" x="319.9" width="63.8" height="14.1"/>
	<rect class="st0" x="319.9" y="36.1" width="46.9" height="14.1"/>
	<rect class="st0" x="319.9" y="72.3" width="63.8" height="14.1"/>
	<polygon class="st0" points="138.7 86.1 123.6 86.1 87 0.2 102.1 0.2"/>
		<polygon class="st0" points="146.4 68.4 175.5 0.2 160.4 0.2 138.8 50.7"/>
<path class="st0" d="m247.7 86.3v-14.1c15.9 0 28.9-13 28.9-28.9s-13-28.9-28.9-28.9v-14.1c23.7 0 43 19.3 43 43s-19.3 43-43 43z"/>
	<polygon class="st0" points="489.1 86.1 430 0.2 414.9 0.2 414.9 86.1 429 86.1 429 22.4 472.9 86.1"/>
		<polygon class="st0" points="489.1 62.6 489.1 0.2 475 0.2 475 42.1"/>
</svg>